<?xml version="1.0" encoding="utf-8"?>
<!-- Svg Vector Icons : http://www.onlinewebfonts.com/icon -->
<!DOCTYPE svg PUBLIC "-//W3C//DTD SVG 1.1//EN" "http://www.w3.org/Graphics/SVG/1.1/DTD/svg11.dtd">
<svg version="1.1" xmlns="http://www.w3.org/2000/svg" xmlns:xlink="http://www.w3.org/1999/xlink" x="0px" y="0px" viewBox="0 0 1000 1000" enable-background="new 0 0 1000 1000" xml:space="preserve">
<metadata> Svg Vector Icons : http://www.onlinewebfonts.com/icon </metadata>
<g><path d="M500,105.1c105.5,0,204.6,41.1,279.2,115.6c74.6,74.6,115.6,173.7,115.6,279.2s-41.1,204.6-115.6,279.2C704.6,853.8,605.5,894.9,500,894.9s-204.6-41.1-279.2-115.6C146.2,704.6,105.1,605.5,105.1,500s41.1-204.6,115.6-279.2C295.4,146.2,394.5,105.1,500,105.1 M500,10C229.4,10,10,229.4,10,500s219.4,490,490,490s490-219.4,490-490S770.6,10,500,10L500,10z M398.6,309.1c0,30.1-24.2,54.5-54.1,54.5c-29.9,0-54.1-24.4-54.1-54.5c0-30.1,24.2-54.5,54.1-54.5C374.4,254.6,398.6,279,398.6,309.1z M390.7,402.4h-91.4v295.4h91.4V402.4z M536.8,402.4h-87.7v295.4h87.7c0,0,0-109.6,0-155.1c0-41.5,19.1-66.3,55.7-66.3c33.6,0,49.8,23.7,49.8,66.3c0,42.5,0,155.1,0,155.1h91c0,0,0-107.9,0-187.1c0-79.1-44.8-117.4-107.5-117.4s-89,48.8-89,48.8L536.8,402.4L536.8,402.4z"/></g>
</svg>